<svg xmlns="http://www.w3.org/2000/svg" viewBox="0 0 1180 430" width="1180" height="430"
     font-family="-apple-system, BlinkMacSystemFont, Segoe UI, Roboto, Helvetica, Arial, sans-serif">
  <title>One detent of the rotary encoder, and the bounce it arrives with</title>
  <desc>Two pin traces, CLK and DT, a quarter cycle apart. Both rest high; CLK
        falls, then DT, then CLK rises, then DT, and only that last transition
        back to rest emits a step. Every edge carries a burst of contact bounce
        that the state machine absorbs.</desc>
  <defs>
    <style>
      .card  { fill: #ffffff; stroke: #e5e7eb; }
      .title { font-size: 15px; font-weight: 700; fill: #111827; }
      .step  { font-size: 13px; font-weight: 700; fill: #1d4ed8; }
      .cap   { font-size: 11.5px; fill: #374151; }
      .dim   { font-size: 11px; fill: #6b7280; }
      .mono  { font-family: ui-monospace, Menlo, Consolas, monospace; font-size: 11.5px; }
      .wave  { fill: none; stroke-width: 2; }
    </style>
  </defs>
  <rect class="card" x="0.5" y="0.5" width="1179" height="429" rx="8"/>
  <text class="title" x="28" y="34">One detent, and the bounce it arrives with</text>
  <text class="dim"   x="28" y="53">Rest is both pins high. A complete cycle is one click; anything that does not complete one emits nothing at all.</text>
<rect x="200" y="96" width="160" height="200" fill="#f8fafc"/>
<rect x="520" y="96" width="160" height="200" fill="#f8fafc"/>
<text class="step" x="40" y="122">CLK</text>
<text class="step" x="40" y="222">DT</text>
<polyline class="wave" stroke="#1d4ed8" points="100.0,104.0 200.0,104.0 200.0,150.0 202.5,104.0 205.0,150.0 207.5,104.0 210.0,150.0 212.5,104.0 214.0,150.0 520.0,150.0 520.0,104.0 522.5,150.0 525.0,104.0 527.5,150.0 530.0,104.0 532.5,150.0 534.0,104.0 860.0,104.0"/>
<polyline class="wave" stroke="#b45309" points="100.0,204.0 360.0,204.0 360.0,250.0 362.5,204.0 365.0,250.0 367.5,204.0 370.0,250.0 372.5,204.0 374.0,250.0 680.0,250.0 680.0,204.0 682.5,250.0 685.0,204.0 687.5,250.0 690.0,204.0 692.5,250.0 694.0,204.0 860.0,204.0"/>
<line x1="200" y1="96" x2="200" y2="296" stroke="#e5e7eb" stroke-dasharray="3 3"/>
<line x1="360" y1="96" x2="360" y2="296" stroke="#e5e7eb" stroke-dasharray="3 3"/>
<line x1="520" y1="96" x2="520" y2="296" stroke="#e5e7eb" stroke-dasharray="3 3"/>
<line x1="680" y1="96" x2="680" y2="296" stroke="#e5e7eb" stroke-dasharray="3 3"/>
<text class="mono" x="150" y="286" text-anchor="middle" fill="#6b7280">1 1</text>
<text class="mono" x="280" y="286" text-anchor="middle" fill="#6b7280">0 1</text>
<text class="mono" x="440" y="286" text-anchor="middle" fill="#6b7280">0 0</text>
<text class="mono" x="600" y="286" text-anchor="middle" fill="#6b7280">1 0</text>
<text class="mono" x="770" y="286" text-anchor="middle" fill="#6b7280">1 1</text>
<text class="dim" x="100" y="308">rest</text>
<text class="dim" x="770" y="308" text-anchor="middle">rest again</text>
<line x1="694" y1="150" x2="694" y2="256" stroke="#16a34a" stroke-width="1.6"/>
<circle cx="694" cy="150" r="4" fill="#16a34a"/>
<text class="cap" x="706" y="146" fill="#16a34a">+1, here and nowhere else</text>
<text class="dim" x="706" y="164" fill="#16a34a">the only transition in the whole</text>
<text class="dim" x="706" y="179" fill="#16a34a">table that emits a clockwise step</text>
<text class="cap" x="204" y="336">the chatter on every edge is contact bounce: twenty clicks gave 453 edges, and 88 of them survived a 1 ms debounce</text>
<text class="dim" x="204" y="354">none of which the decoder is told about - a partial transition routes back to rest, so bounce advances nothing</text>
<line x1="900" y1="96" x2="900" y2="360" stroke="#e5e7eb"/>
<text class="step" x="932" y="122">why this is bounce-proof rather</text>
<text class="step" x="932" y="140">than bounce-tolerant</text>
<text class="cap" x="932" y="166">Every row of the table covers all</text>
<text class="cap" x="932" y="182">four pin combinations, so nothing</text>
<text class="cap" x="932" y="198">can fall through. A transition that</text>
<text class="cap" x="932" y="214">does not belong to the direction</text>
<text class="cap" x="932" y="230">being tracked routes back to rest.</text>
<text class="dim" x="932" y="256">Sampling the partner pin at an edge</text>
<text class="dim" x="932" y="271">is the classic approach, and it reads</text>
<text class="dim" x="932" y="286">bounce as direction: during a bounce</text>
<text class="dim" x="932" y="301">the partner is whatever it happens</text>
<text class="dim" x="932" y="316">to be.</text>
<text class="dim" x="932" y="342">Anticlockwise is the mirror image:</text>
<text class="dim" x="932" y="357">DT falls first.</text>
<text class="cap" x="40" y="392">Which way counts as forwards cannot be derived - it depends on which pin was called CLK when the module was wired - so it was</text>
<text class="cap" x="40" y="408">settled by turning the real knob. What crosses to the render loop is not this waveform but an integer: the callback thread adds to it</text>
<text class="cap" x="40" y="424">under a lock, and the loop takes the whole balance once a frame. Only counts survive between frames, never the order of events.</text>
</svg>
